<svg width="57" height="64" viewBox="0 0 57 64" fill="none" xmlns="http://www.w3.org/2000/svg">
<rect y="7" width="57" height="57" rx="28.5" fill="white"/>
<path d="M12.75 52L25.85 15.65H30.5L43.6 52H38.5L28.35 22.7L28 21.25L27.65 22.7L22.05 38.75L21.5 39.8L22.1 39.7H28.85C29.65 39.7 30.3167 39.8667 30.85 40.2C31.4 40.5333 31.85 40.975 32.2 41.525C32.5667 42.075 32.8667 42.6667 33.1 43.3H20.5L17.5 52H12.75Z" fill="#20401E"/>
<path d="M25.523 52.13C24.9163 52.13 24.3985 51.9762 23.9695 51.6685C23.5448 51.3565 23.2198 50.934 22.9945 50.401C22.7735 49.868 22.663 49.27 22.663 48.607C22.663 48.087 22.7453 47.619 22.91 47.203C23.079 46.7827 23.3065 46.423 23.5925 46.124C23.8785 45.825 24.2013 45.5975 24.561 45.4415C24.9207 45.2812 25.2933 45.201 25.679 45.201C25.874 45.201 26.0798 45.2162 26.2965 45.2465C26.5175 45.2768 26.745 45.3353 26.979 45.422C26.862 45.6343 26.706 45.8077 26.511 45.942C26.316 46.0763 26.0647 46.1413 25.757 46.137C25.458 46.1283 25.1698 46.2085 24.8925 46.3775C24.6195 46.5422 24.3942 46.8087 24.2165 47.177C24.0388 47.541 23.95 48.0177 23.95 48.607C23.95 49.1097 24.0172 49.556 24.1515 49.946C24.2902 50.336 24.4895 50.6415 24.7495 50.8625C25.0138 51.0835 25.3367 51.194 25.718 51.194C26.017 51.194 26.3095 51.1182 26.5955 50.9665C26.8815 50.8105 27.1567 50.57 27.421 50.245V42.146H28.63V49.777C28.63 50.297 28.6495 50.7412 28.6885 51.1095C28.7275 51.4735 28.773 51.7703 28.825 52H27.954C27.85 51.909 27.7633 51.8137 27.694 51.714C27.629 51.61 27.564 51.4713 27.499 51.298L27.473 51.09L27.369 51.311C27.1047 51.6143 26.797 51.8267 26.446 51.948C26.0993 52.0693 25.7917 52.13 25.523 52.13ZM31.6805 52.13C31.2125 52.13 30.7684 52.0758 30.348 51.9675C29.9277 51.8548 29.5312 51.6923 29.1585 51.48V42.146H30.3675V50.986C30.5755 51.064 30.7965 51.1182 31.0305 51.1485C31.2689 51.1788 31.4855 51.194 31.6805 51.194C32.3002 51.194 32.7877 50.9557 33.143 50.479C33.5027 49.998 33.6825 49.374 33.6825 48.607C33.6825 48.035 33.6045 47.5627 33.4485 47.19C33.2925 46.8173 33.0737 46.5443 32.792 46.371C32.5104 46.1933 32.1832 46.1153 31.8105 46.137C31.6155 46.15 31.4335 46.1067 31.2645 46.007C31.0999 45.903 30.9482 45.7513 30.8095 45.552C31.0392 45.4393 31.2819 45.3527 31.5375 45.292C31.7932 45.2313 32.0185 45.201 32.2135 45.201C32.5689 45.201 32.909 45.2725 33.234 45.4155C33.5634 45.5585 33.8559 45.773 34.1115 46.059C34.3715 46.3407 34.5774 46.6938 34.729 47.1185C34.8807 47.5432 34.9565 48.0393 34.9565 48.607C34.9565 49.296 34.8179 49.9048 34.5405 50.4335C34.2675 50.9622 33.884 51.3782 33.39 51.6815C32.9004 51.9805 32.3305 52.13 31.6805 52.13Z" fill="#20401E"/>
</svg>
