<svg width="209" height="97" viewBox="0 0 209 97" fill="none" xmlns="http://www.w3.org/2000/svg">
<path d="M140.952 34C140.612 33.1 140.292 32.22 139.992 31.36C139.692 30.48 139.382 29.59 139.062 28.69H129.642L127.752 34H124.722C125.522 31.8 126.272 29.77 126.972 27.91C127.672 26.03 128.352 24.25 129.012 22.57C129.692 20.89 130.362 19.29 131.022 17.77C131.682 16.23 132.372 14.71 133.092 13.21H135.762C136.482 14.71 137.172 16.23 137.832 17.77C138.492 19.29 139.152 20.89 139.812 22.57C140.492 24.25 141.182 26.03 141.882 27.91C142.582 29.77 143.332 31.8 144.132 34H140.952ZM138.222 26.29C137.582 24.55 136.942 22.87 136.302 21.25C135.682 19.61 135.032 18.04 134.352 16.54C133.652 18.04 132.982 19.61 132.342 21.25C131.722 22.87 131.102 24.55 130.482 26.29H138.222ZM156.086 32.44C155.846 32.6 155.376 32.81 154.676 33.07C153.996 33.31 153.196 33.43 152.276 33.43C151.336 33.43 150.446 33.28 149.606 32.98C148.786 32.68 148.066 32.22 147.446 31.6C146.826 30.96 146.336 30.17 145.976 29.23C145.616 28.29 145.436 27.17 145.436 25.87C145.436 24.73 145.606 23.69 145.946 22.75C146.286 21.79 146.776 20.97 147.416 20.29C148.076 19.59 148.876 19.05 149.816 18.67C150.756 18.27 151.816 18.07 152.996 18.07C154.296 18.07 155.426 18.17 156.386 18.37C157.366 18.55 158.186 18.72 158.846 18.88V32.8C158.846 35.2 158.226 36.94 156.986 38.02C155.746 39.1 153.866 39.64 151.346 39.64C150.366 39.64 149.436 39.56 148.556 39.4C147.696 39.24 146.946 39.05 146.306 38.83L146.816 36.4C147.376 36.62 148.056 36.81 148.856 36.97C149.676 37.15 150.526 37.24 151.406 37.24C153.066 37.24 154.256 36.91 154.976 36.25C155.716 35.59 156.086 34.54 156.086 33.1V32.44ZM156.056 20.86C155.776 20.78 155.396 20.71 154.916 20.65C154.456 20.57 153.826 20.53 153.026 20.53C151.526 20.53 150.366 21.02 149.546 22C148.746 22.98 148.346 24.28 148.346 25.9C148.346 26.8 148.456 27.57 148.676 28.21C148.916 28.85 149.226 29.38 149.606 29.8C150.006 30.22 150.456 30.53 150.956 30.73C151.476 30.93 152.006 31.03 152.546 31.03C153.286 31.03 153.966 30.93 154.586 30.73C155.206 30.51 155.696 30.26 156.056 29.98V20.86ZM169.41 18.07C169.65 18.07 169.92 18.09 170.22 18.13C170.54 18.15 170.85 18.19 171.15 18.25C171.45 18.29 171.72 18.34 171.96 18.4C172.22 18.44 172.41 18.48 172.53 18.52L172.05 20.95C171.83 20.87 171.46 20.78 170.94 20.68C170.44 20.56 169.79 20.5 168.99 20.5C168.47 20.5 167.95 20.56 167.43 20.68C166.93 20.78 166.6 20.85 166.44 20.89V34H163.65V19.06C164.31 18.82 165.13 18.6 166.11 18.4C167.09 18.18 168.19 18.07 169.41 18.07ZM188.992 26.2C188.992 27.44 188.812 28.56 188.452 29.56C188.092 30.56 187.582 31.42 186.922 32.14C186.282 32.86 185.512 33.42 184.612 33.82C183.712 34.2 182.732 34.39 181.672 34.39C180.612 34.39 179.632 34.2 178.732 33.82C177.832 33.42 177.052 32.86 176.392 32.14C175.752 31.42 175.252 30.56 174.892 29.56C174.532 28.56 174.352 27.44 174.352 26.2C174.352 24.98 174.532 23.87 174.892 22.87C175.252 21.85 175.752 20.98 176.392 20.26C177.052 19.54 177.832 18.99 178.732 18.61C179.632 18.21 180.612 18.01 181.672 18.01C182.732 18.01 183.712 18.21 184.612 18.61C185.512 18.99 186.282 19.54 186.922 20.26C187.582 20.98 188.092 21.85 188.452 22.87C188.812 23.87 188.992 24.98 188.992 26.2ZM186.082 26.2C186.082 24.44 185.682 23.05 184.882 22.03C184.102 20.99 183.032 20.47 181.672 20.47C180.312 20.47 179.232 20.99 178.432 22.03C177.652 23.05 177.262 24.44 177.262 26.2C177.262 27.96 177.652 29.36 178.432 30.4C179.232 31.42 180.312 31.93 181.672 31.93C183.032 31.93 184.102 31.42 184.882 30.4C185.682 29.36 186.082 27.96 186.082 26.2ZM144.953 49.59C144.953 51.39 144.673 52.96 144.113 54.3C143.553 55.62 142.763 56.72 141.743 57.6C140.723 58.46 139.503 59.11 138.083 59.55C136.663 59.97 135.103 60.18 133.403 60.18C132.563 60.18 131.633 60.14 130.613 60.06C129.613 60 128.703 59.87 127.883 59.67V39.51C128.703 39.31 129.613 39.18 130.613 39.12C131.633 39.04 132.563 39 133.403 39C135.103 39 136.663 39.22 138.083 39.66C139.503 40.08 140.723 40.73 141.743 41.61C142.763 42.47 143.553 43.57 144.113 44.91C144.673 46.23 144.953 47.79 144.953 49.59ZM133.643 57.63C136.403 57.63 138.463 56.93 139.823 55.53C141.183 54.11 141.863 52.13 141.863 49.59C141.863 47.05 141.183 45.08 139.823 43.68C138.463 42.26 136.403 41.55 133.643 41.55C132.823 41.55 132.183 41.56 131.723 41.58C131.283 41.6 130.973 41.62 130.793 41.64V57.54C130.973 57.56 131.283 57.58 131.723 57.6C132.183 57.62 132.823 57.63 133.643 57.63ZM153.959 57.99C154.619 57.99 155.199 57.98 155.699 57.96C156.219 57.92 156.649 57.86 156.989 57.78V53.13C156.789 53.03 156.459 52.95 155.999 52.89C155.559 52.81 155.019 52.77 154.379 52.77C153.959 52.77 153.509 52.8 153.029 52.86C152.569 52.92 152.139 53.05 151.739 53.25C151.359 53.43 151.039 53.69 150.779 54.03C150.519 54.35 150.389 54.78 150.389 55.32C150.389 56.32 150.709 57.02 151.349 57.42C151.989 57.8 152.859 57.99 153.959 57.99ZM153.719 44.01C154.839 44.01 155.779 44.16 156.539 44.46C157.319 44.74 157.939 45.15 158.399 45.69C158.879 46.21 159.219 46.84 159.419 47.58C159.619 48.3 159.719 49.1 159.719 49.98V59.73C159.479 59.77 159.139 59.83 158.699 59.91C158.279 59.97 157.799 60.03 157.259 60.09C156.719 60.15 156.129 60.2 155.489 60.24C154.869 60.3 154.249 60.33 153.629 60.33C152.749 60.33 151.939 60.24 151.199 60.06C150.459 59.88 149.819 59.6 149.279 59.22C148.739 58.82 148.319 58.3 148.019 57.66C147.719 57.02 147.569 56.25 147.569 55.35C147.569 54.49 147.739 53.75 148.079 53.13C148.439 52.51 148.919 52.01 149.519 51.63C150.119 51.25 150.819 50.97 151.619 50.79C152.419 50.61 153.259 50.52 154.139 50.52C154.419 50.52 154.709 50.54 155.009 50.58C155.309 50.6 155.589 50.64 155.849 50.7C156.129 50.74 156.369 50.78 156.569 50.82C156.769 50.86 156.909 50.89 156.989 50.91V50.13C156.989 49.67 156.939 49.22 156.839 48.78C156.739 48.32 156.559 47.92 156.299 47.58C156.039 47.22 155.679 46.94 155.219 46.74C154.779 46.52 154.199 46.41 153.479 46.41C152.559 46.41 151.749 46.48 151.049 46.62C150.369 46.74 149.859 46.87 149.519 47.01L149.189 44.7C149.549 44.54 150.149 44.39 150.989 44.25C151.829 44.09 152.739 44.01 153.719 44.01ZM166.963 44.4H172.873V46.74H166.963V53.94C166.963 54.72 167.023 55.37 167.143 55.89C167.263 56.39 167.443 56.79 167.683 57.09C167.923 57.37 168.223 57.57 168.583 57.69C168.943 57.81 169.363 57.87 169.843 57.87C170.683 57.87 171.353 57.78 171.853 57.6C172.373 57.4 172.733 57.26 172.933 57.18L173.473 59.49C173.193 59.63 172.703 59.8 172.003 60C171.303 60.22 170.503 60.33 169.603 60.33C168.543 60.33 167.663 60.2 166.963 59.94C166.283 59.66 165.733 59.25 165.313 58.71C164.893 58.17 164.593 57.51 164.413 56.73C164.253 55.93 164.173 55.01 164.173 53.97V40.05L166.963 39.57V44.4ZM181.703 57.99C182.363 57.99 182.943 57.98 183.443 57.96C183.963 57.92 184.393 57.86 184.733 57.78V53.13C184.533 53.03 184.203 52.95 183.743 52.89C183.303 52.81 182.763 52.77 182.123 52.77C181.703 52.77 181.253 52.8 180.773 52.86C180.313 52.92 179.883 53.05 179.483 53.25C179.103 53.43 178.783 53.69 178.523 54.03C178.263 54.35 178.133 54.78 178.133 55.32C178.133 56.32 178.453 57.02 179.093 57.42C179.733 57.8 180.603 57.99 181.703 57.99ZM181.463 44.01C182.583 44.01 183.523 44.16 184.283 44.46C185.063 44.74 185.683 45.15 186.143 45.69C186.623 46.21 186.963 46.84 187.163 47.58C187.363 48.3 187.463 49.1 187.463 49.98V59.73C187.223 59.77 186.883 59.83 186.443 59.91C186.023 59.97 185.543 60.03 185.003 60.09C184.463 60.15 183.873 60.2 183.233 60.24C182.613 60.3 181.993 60.33 181.373 60.33C180.493 60.33 179.683 60.24 178.943 60.06C178.203 59.88 177.563 59.6 177.023 59.22C176.483 58.82 176.063 58.3 175.763 57.66C175.463 57.02 175.313 56.25 175.313 55.35C175.313 54.49 175.483 53.75 175.823 53.13C176.183 52.51 176.663 52.01 177.263 51.63C177.863 51.25 178.563 50.97 179.363 50.79C180.163 50.61 181.003 50.52 181.883 50.52C182.163 50.52 182.453 50.54 182.753 50.58C183.053 50.6 183.333 50.64 183.593 50.7C183.873 50.74 184.113 50.78 184.313 50.82C184.513 50.86 184.653 50.89 184.733 50.91V50.13C184.733 49.67 184.683 49.22 184.583 48.78C184.483 48.32 184.303 47.92 184.043 47.58C183.783 47.22 183.423 46.94 182.963 46.74C182.523 46.52 181.943 46.41 181.223 46.41C180.303 46.41 179.493 46.48 178.793 46.62C178.113 46.74 177.603 46.87 177.263 47.01L176.933 44.7C177.293 44.54 177.893 44.39 178.733 44.25C179.573 44.09 180.483 44.01 181.463 44.01ZM133.141 86.18C132.721 86.18 132.261 86.17 131.761 86.15C131.281 86.13 130.791 86.1 130.291 86.06C129.811 86.02 129.331 85.97 128.851 85.91C128.371 85.85 127.931 85.77 127.531 85.67V65.51C127.931 65.41 128.371 65.33 128.851 65.27C129.331 65.21 129.811 65.16 130.291 65.12C130.791 65.08 131.281 65.05 131.761 65.03C132.241 65.01 132.691 65 133.111 65C134.311 65 135.431 65.09 136.471 65.27C137.531 65.45 138.441 65.76 139.201 66.2C139.981 66.62 140.591 67.18 141.031 67.88C141.471 68.58 141.691 69.44 141.691 70.46C141.691 71.6 141.421 72.54 140.881 73.28C140.341 74 139.621 74.54 138.721 74.9C139.941 75.26 140.911 75.83 141.631 76.61C142.351 77.39 142.711 78.49 142.711 79.91C142.711 81.99 141.941 83.56 140.401 84.62C138.881 85.66 136.461 86.18 133.141 86.18ZM130.411 76.31V83.63C130.631 83.65 130.891 83.67 131.191 83.69C131.451 83.71 131.751 83.73 132.091 83.75C132.451 83.75 132.861 83.75 133.321 83.75C134.181 83.75 134.991 83.7 135.751 83.6C136.531 83.48 137.211 83.28 137.791 83C138.371 82.72 138.831 82.33 139.171 81.83C139.531 81.33 139.711 80.7 139.711 79.94C139.711 79.26 139.581 78.69 139.321 78.23C139.061 77.75 138.681 77.37 138.181 77.09C137.701 76.81 137.121 76.61 136.441 76.49C135.761 76.37 135.001 76.31 134.161 76.31H130.411ZM130.411 73.97H133.471C134.191 73.97 134.871 73.92 135.511 73.82C136.151 73.72 136.701 73.54 137.161 73.28C137.641 73.02 138.011 72.68 138.271 72.26C138.551 71.84 138.691 71.31 138.691 70.67C138.691 70.07 138.551 69.57 138.271 69.17C137.991 68.75 137.601 68.42 137.101 68.18C136.621 67.92 136.051 67.73 135.391 67.61C134.731 67.49 134.031 67.43 133.291 67.43C132.551 67.43 131.971 67.44 131.551 67.46C131.131 67.48 130.751 67.51 130.411 67.55V73.97ZM151.909 83.99C152.569 83.99 153.149 83.98 153.649 83.96C154.169 83.92 154.599 83.86 154.939 83.78V79.13C154.739 79.03 154.409 78.95 153.949 78.89C153.509 78.81 152.969 78.77 152.329 78.77C151.909 78.77 151.459 78.8 150.979 78.86C150.519 78.92 150.089 79.05 149.689 79.25C149.309 79.43 148.989 79.69 148.729 80.03C148.469 80.35 148.339 80.78 148.339 81.32C148.339 82.32 148.659 83.02 149.299 83.42C149.939 83.8 150.809 83.99 151.909 83.99ZM151.669 70.01C152.789 70.01 153.729 70.16 154.489 70.46C155.269 70.74 155.889 71.15 156.349 71.69C156.829 72.21 157.169 72.84 157.369 73.58C157.569 74.3 157.669 75.1 157.669 75.98V85.73C157.429 85.77 157.089 85.83 156.649 85.91C156.229 85.97 155.749 86.03 155.209 86.09C154.669 86.15 154.079 86.2 153.439 86.24C152.819 86.3 152.199 86.33 151.579 86.33C150.699 86.33 149.889 86.24 149.149 86.06C148.409 85.88 147.769 85.6 147.229 85.22C146.689 84.82 146.269 84.3 145.969 83.66C145.669 83.02 145.519 82.25 145.519 81.35C145.519 80.49 145.689 79.75 146.029 79.13C146.389 78.51 146.869 78.01 147.469 77.63C148.069 77.25 148.769 76.97 149.569 76.79C150.369 76.61 151.209 76.52 152.089 76.52C152.369 76.52 152.659 76.54 152.959 76.58C153.259 76.6 153.539 76.64 153.799 76.7C154.079 76.74 154.319 76.78 154.519 76.82C154.719 76.86 154.859 76.89 154.939 76.91V76.13C154.939 75.67 154.889 75.22 154.789 74.78C154.689 74.32 154.509 73.92 154.249 73.58C153.989 73.22 153.629 72.94 153.169 72.74C152.729 72.52 152.149 72.41 151.429 72.41C150.509 72.41 149.699 72.48 148.999 72.62C148.319 72.74 147.809 72.87 147.469 73.01L147.139 70.7C147.499 70.54 148.099 70.39 148.939 70.25C149.779 70.09 150.689 70.01 151.669 70.01ZM165.932 83.99C167.072 83.99 167.912 83.84 168.452 83.54C169.012 83.24 169.292 82.76 169.292 82.1C169.292 81.42 169.022 80.88 168.482 80.48C167.942 80.08 167.052 79.63 165.812 79.13C165.212 78.89 164.632 78.65 164.072 78.41C163.532 78.15 163.062 77.85 162.662 77.51C162.262 77.17 161.942 76.76 161.702 76.28C161.462 75.8 161.342 75.21 161.342 74.51C161.342 73.13 161.852 72.04 162.872 71.24C163.892 70.42 165.282 70.01 167.042 70.01C167.482 70.01 167.922 70.04 168.362 70.1C168.802 70.14 169.212 70.2 169.592 70.28C169.972 70.34 170.302 70.41 170.582 70.49C170.882 70.57 171.112 70.64 171.272 70.7L170.762 73.1C170.462 72.94 169.992 72.78 169.352 72.62C168.712 72.44 167.942 72.35 167.042 72.35C166.262 72.35 165.582 72.51 165.002 72.83C164.422 73.13 164.132 73.61 164.132 74.27C164.132 74.61 164.192 74.91 164.312 75.17C164.452 75.43 164.652 75.67 164.912 75.89C165.192 76.09 165.532 76.28 165.932 76.46C166.332 76.64 166.812 76.83 167.372 77.03C168.112 77.31 168.772 77.59 169.352 77.87C169.932 78.13 170.422 78.44 170.822 78.8C171.242 79.16 171.562 79.6 171.782 80.12C172.002 80.62 172.112 81.24 172.112 81.98C172.112 83.42 171.572 84.51 170.492 85.25C169.432 85.99 167.912 86.36 165.932 86.36C164.552 86.36 163.472 86.24 162.692 86C161.912 85.78 161.382 85.61 161.102 85.49L161.612 83.09C161.932 83.21 162.442 83.39 163.142 83.63C163.842 83.87 164.772 83.99 165.932 83.99ZM174.821 78.23C174.821 76.85 175.021 75.65 175.421 74.63C175.821 73.59 176.351 72.73 177.011 72.05C177.671 71.37 178.431 70.86 179.291 70.52C180.151 70.18 181.031 70.01 181.931 70.01C184.031 70.01 185.641 70.67 186.761 71.99C187.881 73.29 188.441 75.28 188.441 77.96C188.441 78.08 188.441 78.24 188.441 78.44C188.441 78.62 188.431 78.79 188.411 78.95H177.731C177.851 80.57 178.321 81.8 179.141 82.64C179.961 83.48 181.241 83.9 182.981 83.9C183.961 83.9 184.781 83.82 185.441 83.66C186.121 83.48 186.631 83.31 186.971 83.15L187.361 85.49C187.021 85.67 186.421 85.86 185.561 86.06C184.721 86.26 183.761 86.36 182.681 86.36C181.321 86.36 180.141 86.16 179.141 85.76C178.161 85.34 177.351 84.77 176.711 84.05C176.071 83.33 175.591 82.48 175.271 81.5C174.971 80.5 174.821 79.41 174.821 78.23ZM185.531 76.7C185.551 75.44 185.231 74.41 184.571 73.61C183.931 72.79 183.041 72.38 181.901 72.38C181.261 72.38 180.691 72.51 180.191 72.77C179.711 73.01 179.301 73.33 178.961 73.73C178.621 74.13 178.351 74.59 178.151 75.11C177.971 75.63 177.851 76.16 177.791 76.7H185.531Z" fill="#20401E"/>
<path d="M53.0478 2.57116C48.5019 6.08383 46.7456 11.2495 47.6754 17.9649C48.0887 21.1676 48.3986 24.6803 48.2953 25.8168C48.2953 27.0565 48.3986 27.2632 48.7086 26.3333C48.9152 25.5068 50.5682 23.9571 52.2212 23.0273C53.8743 22.0975 56.1472 19.4113 57.3869 17.0351C59.1433 13.5224 59.4532 11.7661 58.8333 6.70371C58.1101 -0.115005 57.1803 -0.734888 53.0478 2.57116Z" fill="#20401E"/>
<path d="M26.9097 5.25729C18.3346 6.60037 2.11435 11.2495 0.254705 12.7992C-0.67512 13.729 1.08122 33.0487 3.25081 44.9298C4.18063 49.9922 6.35022 56.8109 8.31319 60.9435C14.3054 73.4444 28.3561 86.8752 43.2333 94.1072L49.1222 97L54.5978 94.3138C62.7596 90.2846 72.2645 82.7427 78.5666 75.0975C84.7654 67.6589 91.5842 54.538 93.4438 46.5828C95.4068 38.6277 97.783 13.6257 96.7498 12.5926C95.3035 11.1462 76.2937 5.77386 70.0949 5.05066C62.3463 4.12083 63.0695 6.18711 71.128 7.63351C81.3561 9.59647 94.5803 13.9357 94.5803 15.2787C94.5803 18.5848 91.3775 43.7934 90.6543 46.3762L89.8278 49.269L83.7323 44.4132L77.5335 39.5575L83.2157 44.8265C86.3151 47.7193 88.4847 50.0955 88.0715 50.0955C87.6582 50.0955 84.7654 48.4425 81.666 46.5828C76.9136 43.4834 75.6738 43.0702 72.8843 43.8967C70.1982 44.6199 69.6816 44.5166 70.1982 43.3801C70.5081 42.347 69.3717 42.7602 66.8921 44.4132L63.0695 46.9961L56.3541 44.3099C52.6348 42.7602 49.2255 41.2105 48.7089 40.6939C47.3658 39.4542 40.7537 39.5575 38.7908 40.7973C37.6543 41.5205 38.1709 41.6238 40.4438 41.2105C42.7167 40.7973 46.3327 41.8304 54.5978 45.3431C60.6933 47.9259 66.6855 50.7154 68.0286 51.4386C69.2684 52.2651 73.5042 54.6413 77.3268 56.8109C82.0793 59.2904 84.1456 60.9435 83.4224 61.6667C82.6992 62.3899 78.6699 60.7368 71.2313 57.0175C61.4165 51.9552 60.3834 51.6452 63.5861 54.4347C70.5081 60.5302 78.05 67.7622 78.05 68.2787C78.05 69.0019 68.0286 62.4932 57.5939 54.9513C52.5315 51.232 46.8493 47.4093 44.8863 46.4795L41.4769 44.6199L26.9097 52.0585C18.9545 56.0877 12.1358 59.3938 11.7225 59.3938C8.20987 59.3938 17.4048 52.885 31.3522 45.4464C34.245 43.7934 36.6212 42.347 36.4146 42.1403C36.2079 42.037 32.6953 43.5867 28.666 45.653C21.0208 49.5789 18.0247 49.6823 22.3639 45.963C24.1202 44.4132 23.0871 44.7232 18.3346 47.0994C14.7186 48.8557 11.5159 50.0955 11.3093 49.7856C10.9993 49.5789 13.8921 46.8928 17.6114 43.8967C27.013 36.3548 25.9799 36.3548 16.165 43.8967C11.7225 47.306 7.79662 50.0955 7.48667 50.0955C7.17673 50.0955 6.66016 48.9591 6.35022 47.616C5.73034 45.0331 2.63092 18.998 2.63092 15.8986C2.63092 13.2125 22.4672 7.84013 38.5841 6.18711C42.0968 5.77386 44.9896 5.05066 44.9896 4.5341C44.9896 3.29433 37.9643 3.50095 26.9097 5.25729ZM81.0461 64.2495C81.1495 66.6257 78.6699 65.6959 73.9175 61.5633L69.2684 57.4308L75.1572 60.2203C78.36 61.77 81.0461 63.6296 81.0461 64.2495ZM54.3912 66.1092C54.2878 67.6589 51.9116 67.3489 51.3951 65.7992C51.0851 64.8694 51.6017 64.4561 52.6348 64.7661C53.668 64.8694 54.3912 65.4893 54.3912 66.1092ZM67.2021 68.692C67.512 69.3119 67.0988 70.0351 66.1689 70.345C64.206 71.1715 63.0695 70.345 64.1027 68.7953C64.9292 67.3489 66.3756 67.3489 67.2021 68.692ZM72.6777 73.961C72.4711 74.5809 71.8512 74.9941 71.3346 74.9941C70.8181 74.9941 70.1982 74.5809 69.9916 73.961C69.7849 73.3411 70.4048 72.8246 71.3346 72.8246C72.2645 72.8246 72.8843 73.3411 72.6777 73.961ZM63.5861 84.2924C63.5861 84.809 62.8629 85.2222 62.0364 85.2222C60.4867 85.2222 59.9701 83.9825 61.1066 82.846C61.9331 82.0195 63.5861 82.9493 63.5861 84.2924Z" fill="#20401E"/>
<path d="M33.9358 18.7914C35.0723 25.4035 42.3042 32.5321 45.0937 29.7427C46.9534 27.883 45.3003 23.5438 40.8578 19.1013C35.4855 13.729 33.1093 13.6257 33.9358 18.7914Z" fill="#20401E"/>
<path d="M56.766 26.4366C55.113 26.9532 52.5302 28.5029 51.2904 29.846C49.1208 32.2222 48.9142 32.7388 50.1539 35.6315C50.8771 37.2846 51.9103 38.731 52.4268 38.731C54.2865 38.731 67.5107 31.3957 69.3703 29.3294C71.0233 27.4697 70.92 27.3664 68.3372 26.3333C65.0311 25.0935 61.2085 25.0935 56.766 26.4366Z" fill="#20401E"/>
<path d="M46.2295 35.6315C46.2295 37.5945 46.4361 38.421 46.7461 37.3879C46.9527 36.4581 46.9527 34.805 46.7461 33.7719C46.4361 32.8421 46.2295 33.6686 46.2295 35.6315Z" fill="#20401E"/>
<path d="M25.3594 39.1442C25.3594 39.4542 26.2892 40.1774 27.4257 40.7973C28.5621 41.4171 29.4919 41.6238 29.4919 41.4171C29.4919 41.1072 28.5621 40.384 27.4257 39.7641C26.2892 39.1442 25.3594 38.9376 25.3594 39.1442Z" fill="#20401E"/>
</svg>
