<svg width="196" height="132" viewBox="0 0 196 132" fill="none" xmlns="http://www.w3.org/2000/svg">
<path d="M102.501 1.92334C98.0017 5.3998 96.2635 10.5122 97.1837 17.1584C97.5927 20.3281 97.8994 23.8046 97.7972 24.9293C97.7972 26.1563 97.8994 26.3608 98.2062 25.4406C98.4107 24.6226 100.047 23.0888 101.683 22.1686C103.319 21.2484 105.568 18.5899 106.795 16.2382C108.533 12.7617 108.84 11.0235 108.227 6.01329C107.511 -0.735128 106.591 -1.34862 102.501 1.92334Z" fill="#20401E"/>
<path d="M76.6323 4.58175C68.1456 5.91099 52.0926 10.5122 50.2521 12.0459C49.3318 12.9661 51.0701 32.0867 53.2173 43.8453C54.1375 48.8555 56.2848 55.6039 58.2275 59.6938C64.1579 72.0659 78.0637 85.3583 92.7876 92.5157L98.6157 95.3787L104.035 92.7202C112.113 88.7325 121.519 81.2683 127.757 73.7019C133.892 66.34 140.64 53.3544 142.48 45.4813C144.423 37.6081 146.775 12.8639 145.752 11.8414C144.321 10.4099 125.507 5.09299 119.372 4.37725C111.704 3.45702 112.419 5.50199 120.395 6.93347C130.517 8.8762 143.605 13.1706 143.605 14.4999C143.605 17.7718 140.435 42.7205 139.72 45.2768L138.902 48.1397L132.869 43.334L126.734 38.5283L132.358 43.743C135.425 46.606 137.573 48.9577 137.164 48.9577C136.755 48.9577 133.892 47.3217 130.824 45.4813C126.121 42.4138 124.894 42.0048 122.133 42.8228C119.474 43.5385 118.963 43.4363 119.474 42.3116C119.781 41.2891 118.657 41.6981 116.203 43.334L112.419 45.8903L105.773 43.2318C102.092 41.6981 98.718 40.1643 98.2068 39.6531C96.8775 38.4261 90.3336 38.5283 88.3909 39.7553C87.2661 40.4711 87.7774 40.5733 90.0269 40.1643C92.2763 39.7553 95.855 40.7778 104.035 44.2543C110.068 46.8105 115.998 49.5712 117.327 50.287C118.554 51.1049 122.746 53.4567 126.53 55.6039C131.233 58.0579 133.278 59.6938 132.562 60.4096C131.847 61.1253 127.859 59.4893 120.497 55.8084C110.783 50.7982 109.761 50.4915 112.931 53.2522C119.781 59.2848 127.245 66.4423 127.245 66.9535C127.245 67.6692 117.327 61.2276 107 53.7634C101.99 50.0825 96.3663 46.2993 94.4235 45.379L91.0493 43.5385L76.6323 50.9004C68.7591 54.8881 62.0107 58.1601 61.6017 58.1601C58.1252 58.1601 67.2254 51.7184 81.029 44.3565C83.8919 42.7205 86.2436 41.2891 86.0391 41.0846C85.8347 40.9823 82.3582 42.516 78.3705 44.561C70.8041 48.4465 67.8389 48.5487 72.1333 44.8678C73.8715 43.334 72.8491 43.6408 68.1456 45.9925C64.5669 47.7307 61.3972 48.9577 61.1927 48.651C60.886 48.4465 63.7489 45.788 67.4299 42.8228C76.7345 35.3586 75.712 35.3586 65.9984 42.8228C61.6017 46.197 57.7162 48.9577 57.4095 48.9577C57.1027 48.9577 56.5915 47.833 56.2848 46.5037C55.6713 43.9475 52.6038 18.1808 52.6038 15.1134C52.6038 12.4549 72.2356 7.13797 88.1864 5.50199C91.6628 5.09299 94.5258 4.37725 94.5258 3.86601C94.5258 2.63902 87.5729 2.84352 76.6323 4.58175ZM130.211 62.9658C130.313 65.3175 127.859 64.3973 123.155 60.3073L118.554 56.2174L124.382 58.9781C127.552 60.5118 130.211 62.3523 130.211 62.9658ZM103.83 64.8063C103.728 66.34 101.376 66.0333 100.865 64.4995C100.558 63.5793 101.07 63.1703 102.092 63.477C103.115 63.5793 103.83 64.1928 103.83 64.8063ZM116.509 67.3625C116.816 67.976 116.407 68.6917 115.487 68.9985C113.544 69.8165 112.419 68.9985 113.442 67.4647C114.26 66.0333 115.691 66.0333 116.509 67.3625ZM121.928 72.5772C121.724 73.1907 121.11 73.5997 120.599 73.5997C120.088 73.5997 119.474 73.1907 119.27 72.5772C119.065 71.9637 119.679 71.4524 120.599 71.4524C121.519 71.4524 122.133 71.9637 121.928 72.5772ZM112.931 82.8021C112.931 83.3133 112.215 83.7223 111.397 83.7223C109.863 83.7223 109.352 82.4953 110.477 81.3706C111.295 80.5526 112.931 81.4728 112.931 82.8021Z" fill="#20401E"/>
<path d="M83.5845 17.9763C84.7093 24.5202 91.8667 31.5753 94.6274 28.8146C96.4679 26.9741 94.8319 22.6797 90.4352 18.283C85.1183 12.9661 82.7666 12.8638 83.5845 17.9763Z" fill="#20401E"/>
<path d="M106.182 25.5427C104.546 26.054 101.99 27.5877 100.763 28.9169C98.6158 31.2687 98.4113 31.7799 99.6383 34.6429C100.354 36.2788 101.377 37.7103 101.888 37.7103C103.728 37.7103 116.816 30.4507 118.657 28.4057C120.293 26.5652 120.19 26.463 117.634 25.4405C114.362 24.2135 110.579 24.2135 106.182 25.5427Z" fill="#20401E"/>
<path d="M95.7529 34.6428C95.7529 36.5856 95.9574 37.4036 96.2642 36.3811C96.4687 35.4608 96.4687 33.8249 96.2642 32.8024C95.9574 31.8821 95.7529 32.7001 95.7529 34.6428Z" fill="#20401E"/>
<path d="M75.0986 38.1194C75.0986 38.4261 76.0189 39.1419 77.1436 39.7554C78.2683 40.3689 79.1886 40.5734 79.1886 40.3689C79.1886 40.0621 78.2683 39.3464 77.1436 38.7329C76.0189 38.1194 75.0986 37.9149 75.0986 38.1194Z" fill="#20401E"/>
<path d="M16.7063 126C16.3663 125.1 16.0463 124.22 15.7463 123.36C15.4463 122.48 15.1363 121.59 14.8163 120.69H5.39633L3.50633 126H0.476328C1.27633 123.8 2.02633 121.77 2.72633 119.91C3.42633 118.03 4.10633 116.25 4.76633 114.57C5.44633 112.89 6.11633 111.29 6.77633 109.77C7.43633 108.23 8.12633 106.71 8.84633 105.21H11.5163C12.2363 106.71 12.9263 108.23 13.5863 109.77C14.2463 111.29 14.9063 112.89 15.5663 114.57C16.2463 116.25 16.9363 118.03 17.6363 119.91C18.3363 121.77 19.0863 123.8 19.8863 126H16.7063ZM13.9763 118.29C13.3363 116.55 12.6963 114.87 12.0563 113.25C11.4363 111.61 10.7863 110.04 10.1063 108.54C9.40633 110.04 8.73633 111.61 8.09633 113.25C7.47633 114.87 6.85633 116.55 6.23633 118.29H13.9763ZM31.8402 124.44C31.6002 124.6 31.1302 124.81 30.4302 125.07C29.7502 125.31 28.9502 125.43 28.0302 125.43C27.0902 125.43 26.2002 125.28 25.3602 124.98C24.5402 124.68 23.8202 124.22 23.2002 123.6C22.5802 122.96 22.0902 122.17 21.7302 121.23C21.3702 120.29 21.1902 119.17 21.1902 117.87C21.1902 116.73 21.3602 115.69 21.7002 114.75C22.0402 113.79 22.5302 112.97 23.1702 112.29C23.8302 111.59 24.6302 111.05 25.5702 110.67C26.5102 110.27 27.5702 110.07 28.7502 110.07C30.0502 110.07 31.1802 110.17 32.1402 110.37C33.1202 110.55 33.9402 110.72 34.6002 110.88V124.8C34.6002 127.2 33.9802 128.94 32.7402 130.02C31.5002 131.1 29.6202 131.64 27.1002 131.64C26.1202 131.64 25.1902 131.56 24.3102 131.4C23.4502 131.24 22.7002 131.05 22.0602 130.83L22.5702 128.4C23.1302 128.62 23.8102 128.81 24.6102 128.97C25.4302 129.15 26.2802 129.24 27.1602 129.24C28.8202 129.24 30.0102 128.91 30.7302 128.25C31.4702 127.59 31.8402 126.54 31.8402 125.1V124.44ZM31.8102 112.86C31.5302 112.78 31.1502 112.71 30.6702 112.65C30.2102 112.57 29.5802 112.53 28.7802 112.53C27.2802 112.53 26.1202 113.02 25.3002 114C24.5002 114.98 24.1002 116.28 24.1002 117.9C24.1002 118.8 24.2102 119.57 24.4302 120.21C24.6702 120.85 24.9802 121.38 25.3602 121.8C25.7602 122.22 26.2102 122.53 26.7102 122.73C27.2302 122.93 27.7602 123.03 28.3002 123.03C29.0402 123.03 29.7202 122.93 30.3402 122.73C30.9602 122.51 31.4502 122.26 31.8102 121.98V112.86ZM45.1639 110.07C45.4039 110.07 45.6739 110.09 45.9739 110.13C46.2939 110.15 46.6039 110.19 46.9039 110.25C47.2039 110.29 47.4739 110.34 47.7139 110.4C47.9739 110.44 48.1639 110.48 48.2839 110.52L47.8039 112.95C47.5839 112.87 47.2139 112.78 46.6939 112.68C46.1939 112.56 45.5439 112.5 44.7439 112.5C44.2239 112.5 43.7039 112.56 43.1839 112.68C42.6839 112.78 42.3539 112.85 42.1939 112.89V126H39.4039V111.06C40.0639 110.82 40.8839 110.6 41.8639 110.4C42.8439 110.18 43.9439 110.07 45.1639 110.07ZM64.7462 118.2C64.7462 119.44 64.5662 120.56 64.2062 121.56C63.8462 122.56 63.3362 123.42 62.6762 124.14C62.0362 124.86 61.2662 125.42 60.3662 125.82C59.4662 126.2 58.4862 126.39 57.4262 126.39C56.3662 126.39 55.3862 126.2 54.4862 125.82C53.5862 125.42 52.8062 124.86 52.1462 124.14C51.5062 123.42 51.0062 122.56 50.6462 121.56C50.2862 120.56 50.1062 119.44 50.1062 118.2C50.1062 116.98 50.2862 115.87 50.6462 114.87C51.0062 113.85 51.5062 112.98 52.1462 112.26C52.8062 111.54 53.5862 110.99 54.4862 110.61C55.3862 110.21 56.3662 110.01 57.4262 110.01C58.4862 110.01 59.4662 110.21 60.3662 110.61C61.2662 110.99 62.0362 111.54 62.6762 112.26C63.3362 112.98 63.8462 113.85 64.2062 114.87C64.5662 115.87 64.7462 116.98 64.7462 118.2ZM61.8362 118.2C61.8362 116.44 61.4362 115.05 60.6362 114.03C59.8562 112.99 58.7862 112.47 57.4262 112.47C56.0662 112.47 54.9862 112.99 54.1862 114.03C53.4062 115.05 53.0162 116.44 53.0162 118.2C53.0162 119.96 53.4062 121.36 54.1862 122.4C54.9862 123.42 56.0662 123.93 57.4262 123.93C58.7862 123.93 59.8562 123.42 60.6362 122.4C61.4362 121.36 61.8362 119.96 61.8362 118.2ZM85.9215 115.59C85.9215 117.39 85.6415 118.96 85.0815 120.3C84.5215 121.62 83.7315 122.72 82.7115 123.6C81.6915 124.46 80.4715 125.11 79.0515 125.55C77.6315 125.97 76.0715 126.18 74.3715 126.18C73.5315 126.18 72.6015 126.14 71.5815 126.06C70.5815 126 69.6715 125.87 68.8515 125.67V105.51C69.6715 105.31 70.5815 105.18 71.5815 105.12C72.6015 105.04 73.5315 105 74.3715 105C76.0715 105 77.6315 105.22 79.0515 105.66C80.4715 106.08 81.6915 106.73 82.7115 107.61C83.7315 108.47 84.5215 109.57 85.0815 110.91C85.6415 112.23 85.9215 113.79 85.9215 115.59ZM74.6115 123.63C77.3715 123.63 79.4315 122.93 80.7915 121.53C82.1515 120.11 82.8315 118.13 82.8315 115.59C82.8315 113.05 82.1515 111.08 80.7915 109.68C79.4315 108.26 77.3715 107.55 74.6115 107.55C73.7915 107.55 73.1515 107.56 72.6915 107.58C72.2515 107.6 71.9415 107.62 71.7615 107.64V123.54C71.9415 123.56 72.2515 123.58 72.6915 123.6C73.1515 123.62 73.7915 123.63 74.6115 123.63ZM94.928 123.99C95.588 123.99 96.168 123.98 96.668 123.96C97.188 123.92 97.618 123.86 97.958 123.78V119.13C97.758 119.03 97.428 118.95 96.968 118.89C96.528 118.81 95.988 118.77 95.348 118.77C94.928 118.77 94.478 118.8 93.998 118.86C93.538 118.92 93.108 119.05 92.708 119.25C92.328 119.43 92.008 119.69 91.748 120.03C91.488 120.35 91.358 120.78 91.358 121.32C91.358 122.32 91.678 123.02 92.318 123.42C92.958 123.8 93.828 123.99 94.928 123.99ZM94.688 110.01C95.808 110.01 96.748 110.16 97.508 110.46C98.288 110.74 98.908 111.15 99.368 111.69C99.848 112.21 100.188 112.84 100.388 113.58C100.588 114.3 100.688 115.1 100.688 115.98V125.73C100.448 125.77 100.108 125.83 99.668 125.91C99.248 125.97 98.768 126.03 98.228 126.09C97.688 126.15 97.098 126.2 96.458 126.24C95.838 126.3 95.218 126.33 94.598 126.33C93.718 126.33 92.908 126.24 92.168 126.06C91.428 125.88 90.788 125.6 90.248 125.22C89.708 124.82 89.288 124.3 88.988 123.66C88.688 123.02 88.538 122.25 88.538 121.35C88.538 120.49 88.708 119.75 89.048 119.13C89.408 118.51 89.888 118.01 90.488 117.63C91.088 117.25 91.788 116.97 92.588 116.79C93.388 116.61 94.228 116.52 95.108 116.52C95.388 116.52 95.678 116.54 95.978 116.58C96.278 116.6 96.558 116.64 96.818 116.7C97.098 116.74 97.338 116.78 97.538 116.82C97.738 116.86 97.878 116.89 97.958 116.91V116.13C97.958 115.67 97.908 115.22 97.808 114.78C97.708 114.32 97.528 113.92 97.268 113.58C97.008 113.22 96.648 112.94 96.188 112.74C95.748 112.52 95.168 112.41 94.448 112.41C93.528 112.41 92.718 112.48 92.018 112.62C91.338 112.74 90.828 112.87 90.488 113.01L90.158 110.7C90.518 110.54 91.118 110.39 91.958 110.25C92.798 110.09 93.708 110.01 94.688 110.01ZM107.932 110.4H113.842V112.74H107.932V119.94C107.932 120.72 107.992 121.37 108.112 121.89C108.232 122.39 108.412 122.79 108.652 123.09C108.892 123.37 109.192 123.57 109.552 123.69C109.912 123.81 110.332 123.87 110.812 123.87C111.652 123.87 112.322 123.78 112.822 123.6C113.342 123.4 113.702 123.26 113.902 123.18L114.442 125.49C114.162 125.63 113.672 125.8 112.972 126C112.272 126.22 111.472 126.33 110.572 126.33C109.512 126.33 108.632 126.2 107.932 125.94C107.252 125.66 106.702 125.25 106.282 124.71C105.862 124.17 105.562 123.51 105.382 122.73C105.222 121.93 105.142 121.01 105.142 119.97V106.05L107.932 105.57V110.4ZM122.672 123.99C123.332 123.99 123.912 123.98 124.412 123.96C124.932 123.92 125.362 123.86 125.702 123.78V119.13C125.502 119.03 125.172 118.95 124.712 118.89C124.272 118.81 123.732 118.77 123.092 118.77C122.672 118.77 122.222 118.8 121.742 118.86C121.282 118.92 120.852 119.05 120.452 119.25C120.072 119.43 119.752 119.69 119.492 120.03C119.232 120.35 119.102 120.78 119.102 121.32C119.102 122.32 119.422 123.02 120.062 123.42C120.702 123.8 121.572 123.99 122.672 123.99ZM122.432 110.01C123.552 110.01 124.492 110.16 125.252 110.46C126.032 110.74 126.652 111.15 127.112 111.69C127.592 112.21 127.932 112.84 128.132 113.58C128.332 114.3 128.432 115.1 128.432 115.98V125.73C128.192 125.77 127.852 125.83 127.412 125.91C126.992 125.97 126.512 126.03 125.972 126.09C125.432 126.15 124.842 126.2 124.202 126.24C123.582 126.3 122.962 126.33 122.342 126.33C121.462 126.33 120.652 126.24 119.912 126.06C119.172 125.88 118.532 125.6 117.992 125.22C117.452 124.82 117.032 124.3 116.732 123.66C116.432 123.02 116.282 122.25 116.282 121.35C116.282 120.49 116.452 119.75 116.792 119.13C117.152 118.51 117.632 118.01 118.232 117.63C118.832 117.25 119.532 116.97 120.332 116.79C121.132 116.61 121.972 116.52 122.852 116.52C123.132 116.52 123.422 116.54 123.722 116.58C124.022 116.6 124.302 116.64 124.562 116.7C124.842 116.74 125.082 116.78 125.282 116.82C125.482 116.86 125.622 116.89 125.702 116.91V116.13C125.702 115.67 125.652 115.22 125.552 114.78C125.452 114.32 125.272 113.92 125.012 113.58C124.752 113.22 124.392 112.94 123.932 112.74C123.492 112.52 122.912 112.41 122.192 112.41C121.272 112.41 120.462 112.48 119.762 112.62C119.082 112.74 118.572 112.87 118.232 113.01L117.902 110.7C118.262 110.54 118.862 110.39 119.702 110.25C120.542 110.09 121.452 110.01 122.432 110.01ZM138.856 126.18C138.436 126.18 137.976 126.17 137.476 126.15C136.996 126.13 136.506 126.1 136.006 126.06C135.526 126.02 135.046 125.97 134.566 125.91C134.086 125.85 133.646 125.77 133.246 125.67V105.51C133.646 105.41 134.086 105.33 134.566 105.27C135.046 105.21 135.526 105.16 136.006 105.12C136.506 105.08 136.996 105.05 137.476 105.03C137.956 105.01 138.406 105 138.826 105C140.026 105 141.146 105.09 142.186 105.27C143.246 105.45 144.156 105.76 144.916 106.2C145.696 106.62 146.306 107.18 146.746 107.88C147.186 108.58 147.406 109.44 147.406 110.46C147.406 111.6 147.136 112.54 146.596 113.28C146.056 114 145.336 114.54 144.436 114.9C145.656 115.26 146.626 115.83 147.346 116.61C148.066 117.39 148.426 118.49 148.426 119.91C148.426 121.99 147.656 123.56 146.116 124.62C144.596 125.66 142.176 126.18 138.856 126.18ZM136.126 116.31V123.63C136.346 123.65 136.606 123.67 136.906 123.69C137.166 123.71 137.466 123.73 137.806 123.75C138.166 123.75 138.576 123.75 139.036 123.75C139.896 123.75 140.706 123.7 141.466 123.6C142.246 123.48 142.926 123.28 143.506 123C144.086 122.72 144.546 122.33 144.886 121.83C145.246 121.33 145.426 120.7 145.426 119.94C145.426 119.26 145.296 118.69 145.036 118.23C144.776 117.75 144.396 117.37 143.896 117.09C143.416 116.81 142.836 116.61 142.156 116.49C141.476 116.37 140.716 116.31 139.876 116.31H136.126ZM136.126 113.97H139.186C139.906 113.97 140.586 113.92 141.226 113.82C141.866 113.72 142.416 113.54 142.876 113.28C143.356 113.02 143.726 112.68 143.986 112.26C144.266 111.84 144.406 111.31 144.406 110.67C144.406 110.07 144.266 109.57 143.986 109.17C143.706 108.75 143.316 108.42 142.816 108.18C142.336 107.92 141.766 107.73 141.106 107.61C140.446 107.49 139.746 107.43 139.006 107.43C138.266 107.43 137.686 107.44 137.266 107.46C136.846 107.48 136.466 107.51 136.126 107.55V113.97ZM157.623 123.99C158.283 123.99 158.863 123.98 159.363 123.96C159.883 123.92 160.313 123.86 160.653 123.78V119.13C160.453 119.03 160.123 118.95 159.663 118.89C159.223 118.81 158.683 118.77 158.043 118.77C157.623 118.77 157.173 118.8 156.693 118.86C156.233 118.92 155.803 119.05 155.403 119.25C155.023 119.43 154.703 119.69 154.443 120.03C154.183 120.35 154.053 120.78 154.053 121.32C154.053 122.32 154.373 123.02 155.013 123.42C155.653 123.8 156.523 123.99 157.623 123.99ZM157.383 110.01C158.503 110.01 159.443 110.16 160.203 110.46C160.983 110.74 161.603 111.15 162.063 111.69C162.543 112.21 162.883 112.84 163.083 113.58C163.283 114.3 163.383 115.1 163.383 115.98V125.73C163.143 125.77 162.803 125.83 162.363 125.91C161.943 125.97 161.463 126.03 160.923 126.09C160.383 126.15 159.793 126.2 159.153 126.24C158.533 126.3 157.913 126.33 157.293 126.33C156.413 126.33 155.603 126.24 154.863 126.06C154.123 125.88 153.483 125.6 152.943 125.22C152.403 124.82 151.983 124.3 151.683 123.66C151.383 123.02 151.233 122.25 151.233 121.35C151.233 120.49 151.403 119.75 151.743 119.13C152.103 118.51 152.583 118.01 153.183 117.63C153.783 117.25 154.483 116.97 155.283 116.79C156.083 116.61 156.923 116.52 157.803 116.52C158.083 116.52 158.373 116.54 158.673 116.58C158.973 116.6 159.253 116.64 159.513 116.7C159.793 116.74 160.033 116.78 160.233 116.82C160.433 116.86 160.573 116.89 160.653 116.91V116.13C160.653 115.67 160.603 115.22 160.503 114.78C160.403 114.32 160.223 113.92 159.963 113.58C159.703 113.22 159.343 112.94 158.883 112.74C158.443 112.52 157.863 112.41 157.143 112.41C156.223 112.41 155.413 112.48 154.713 112.62C154.033 112.74 153.523 112.87 153.183 113.01L152.853 110.7C153.213 110.54 153.813 110.39 154.653 110.25C155.493 110.09 156.403 110.01 157.383 110.01ZM171.647 123.99C172.787 123.99 173.627 123.84 174.167 123.54C174.727 123.24 175.007 122.76 175.007 122.1C175.007 121.42 174.737 120.88 174.197 120.48C173.657 120.08 172.767 119.63 171.527 119.13C170.927 118.89 170.347 118.65 169.787 118.41C169.247 118.15 168.777 117.85 168.377 117.51C167.977 117.17 167.657 116.76 167.417 116.28C167.177 115.8 167.057 115.21 167.057 114.51C167.057 113.13 167.567 112.04 168.587 111.24C169.607 110.42 170.997 110.01 172.757 110.01C173.197 110.01 173.637 110.04 174.077 110.1C174.517 110.14 174.927 110.2 175.307 110.28C175.687 110.34 176.017 110.41 176.297 110.49C176.597 110.57 176.827 110.64 176.987 110.7L176.477 113.1C176.177 112.94 175.707 112.78 175.067 112.62C174.427 112.44 173.657 112.35 172.757 112.35C171.977 112.35 171.297 112.51 170.717 112.83C170.137 113.13 169.847 113.61 169.847 114.27C169.847 114.61 169.907 114.91 170.027 115.17C170.167 115.43 170.367 115.67 170.627 115.89C170.907 116.09 171.247 116.28 171.647 116.46C172.047 116.64 172.527 116.83 173.087 117.03C173.827 117.31 174.487 117.59 175.067 117.87C175.647 118.13 176.137 118.44 176.537 118.8C176.957 119.16 177.277 119.6 177.497 120.12C177.717 120.62 177.827 121.24 177.827 121.98C177.827 123.42 177.287 124.51 176.207 125.25C175.147 125.99 173.627 126.36 171.647 126.36C170.267 126.36 169.187 126.24 168.407 126C167.627 125.78 167.097 125.61 166.817 125.49L167.327 123.09C167.647 123.21 168.157 123.39 168.857 123.63C169.557 123.87 170.487 123.99 171.647 123.99ZM180.536 118.23C180.536 116.85 180.736 115.65 181.136 114.63C181.536 113.59 182.066 112.73 182.726 112.05C183.386 111.37 184.146 110.86 185.006 110.52C185.866 110.18 186.746 110.01 187.646 110.01C189.746 110.01 191.356 110.67 192.476 111.99C193.596 113.29 194.156 115.28 194.156 117.96C194.156 118.08 194.156 118.24 194.156 118.44C194.156 118.62 194.146 118.79 194.126 118.95H183.446C183.566 120.57 184.036 121.8 184.856 122.64C185.676 123.48 186.956 123.9 188.696 123.9C189.676 123.9 190.496 123.82 191.156 123.66C191.836 123.48 192.346 123.31 192.686 123.15L193.076 125.49C192.736 125.67 192.136 125.86 191.276 126.06C190.436 126.26 189.476 126.36 188.396 126.36C187.036 126.36 185.856 126.16 184.856 125.76C183.876 125.34 183.066 124.77 182.426 124.05C181.786 123.33 181.306 122.48 180.986 121.5C180.686 120.5 180.536 119.41 180.536 118.23ZM191.246 116.7C191.266 115.44 190.946 114.41 190.286 113.61C189.646 112.79 188.756 112.38 187.616 112.38C186.976 112.38 186.406 112.51 185.906 112.77C185.426 113.01 185.016 113.33 184.676 113.73C184.336 114.13 184.066 114.59 183.866 115.11C183.686 115.63 183.566 116.16 183.506 116.7H191.246Z" fill="#20401E"/>
</svg>
