<svg width="179" height="141" viewBox="0 0 179 141" fill="none" xmlns="http://www.w3.org/2000/svg">
<path d="M94.5006 1.92334C90.0017 5.3998 88.2635 10.5122 89.1837 17.1584C89.5927 20.3281 89.8994 23.8046 89.7972 24.9293C89.7972 26.1563 89.8994 26.3608 90.2062 25.4406C90.4107 24.6226 92.0467 23.0888 93.6826 22.1686C95.3186 21.2484 97.5681 18.5899 98.7951 16.2382C100.533 12.7617 100.84 11.0235 100.227 6.01329C99.5108 -0.735128 98.5906 -1.34862 94.5006 1.92334Z" fill="#20401E"/>
<path d="M68.6323 4.58175C60.1456 5.91099 44.0926 10.5122 42.2521 12.0459C41.3318 12.9662 43.0701 32.0867 45.2173 43.8453C46.1375 48.8555 48.2848 55.6039 50.2275 59.6938C56.1579 72.0659 70.0637 85.3583 84.7876 92.5157L90.6157 95.3787L96.0349 92.7202C104.113 88.7325 113.519 81.2683 119.757 73.7019C125.892 66.34 132.64 53.3544 134.48 45.4813C136.423 37.6081 138.775 12.8639 137.752 11.8414C136.321 10.4099 117.507 5.093 111.372 4.37725C103.704 3.45702 104.419 5.50199 112.395 6.93347C122.517 8.8762 135.605 13.1706 135.605 14.4999C135.605 17.7718 132.435 42.7205 131.72 45.2768L130.902 48.1397L124.869 43.334L118.734 38.5283L124.358 43.743C127.425 46.606 129.573 48.9577 129.164 48.9577C128.755 48.9577 125.892 47.3217 122.824 45.4813C118.121 42.4138 116.894 42.0048 114.133 42.8228C111.474 43.5385 110.963 43.4363 111.474 42.3115C111.781 41.2891 110.657 41.6981 108.203 43.334L104.419 45.8903L97.7732 43.2318C94.0922 41.6981 90.718 40.1643 90.2068 39.6531C88.8775 38.4261 82.3336 38.5283 80.3909 39.7553C79.2661 40.4711 79.7774 40.5733 82.0269 40.1643C84.2763 39.7553 87.855 40.7778 96.0349 44.2543C102.068 46.8105 107.998 49.5712 109.327 50.287C110.554 51.1049 114.746 53.4567 118.53 55.6039C123.233 58.0579 125.278 59.6938 124.562 60.4096C123.847 61.1253 119.859 59.4893 112.497 55.8084C102.783 50.7982 101.761 50.4915 104.931 53.2522C111.781 59.2848 119.245 66.4423 119.245 66.9535C119.245 67.6692 109.327 61.2276 99.0001 53.7634C93.99 50.0825 88.3663 46.2993 86.4235 45.379L83.0493 43.5385L68.6323 50.9004C60.7591 54.8881 54.0107 58.1601 53.6017 58.1601C50.1252 58.1601 59.2254 51.7184 73.029 44.3565C75.8919 42.7205 78.2436 41.2891 78.0391 41.0846C77.8347 40.9823 74.3582 42.516 70.3705 44.561C62.8041 48.4465 59.8389 48.5487 64.1333 44.8678C65.8715 43.334 64.8491 43.6408 60.1456 45.9925C56.5669 47.7307 53.3972 48.9577 53.1927 48.651C52.886 48.4465 55.7489 45.788 59.4299 42.8228C68.7345 35.3586 67.712 35.3586 57.9984 42.8228C53.6017 46.197 49.7162 48.9577 49.4095 48.9577C49.1027 48.9577 48.5915 47.833 48.2848 46.5037C47.6713 43.9475 44.6038 18.1808 44.6038 15.1134C44.6038 12.4549 64.2356 7.13797 80.1864 5.50199C83.6628 5.093 86.5258 4.37725 86.5258 3.86601C86.5258 2.63903 79.5729 2.84352 68.6323 4.58175ZM122.211 62.9658C122.313 65.3175 119.859 64.3973 115.155 60.3073L110.554 56.2174L116.382 58.9781C119.552 60.5118 122.211 62.3523 122.211 62.9658ZM95.8304 64.8063C95.7282 66.34 93.3765 66.0333 92.8652 64.4995C92.5585 63.5793 93.0697 63.1703 94.0922 63.477C95.1147 63.5793 95.8304 64.1928 95.8304 64.8063ZM108.509 67.3625C108.816 67.976 108.407 68.6917 107.487 68.9985C105.544 69.8165 104.419 68.9985 105.442 67.4647C106.26 66.0333 107.691 66.0333 108.509 67.3625ZM113.928 72.5772C113.724 73.1907 113.11 73.5997 112.599 73.5997C112.088 73.5997 111.474 73.1907 111.27 72.5772C111.065 71.9637 111.679 71.4524 112.599 71.4524C113.519 71.4524 114.133 71.9637 113.928 72.5772ZM104.931 82.8021C104.931 83.3133 104.215 83.7223 103.397 83.7223C101.863 83.7223 101.352 82.4953 102.477 81.3706C103.295 80.5526 104.931 81.4728 104.931 82.8021Z" fill="#20401E"/>
<path d="M75.5845 17.9763C76.7093 24.5202 83.8667 31.5753 86.6274 28.8146C88.4679 26.9741 86.8319 22.6797 82.4352 18.283C77.1183 12.9661 74.7666 12.8638 75.5845 17.9763Z" fill="#20401E"/>
<path d="M98.1822 25.5427C96.5462 26.054 93.99 27.5877 92.763 28.9169C90.6158 31.2687 90.4113 31.7799 91.6383 34.6429C92.354 36.2788 93.3765 37.7103 93.8878 37.7103C95.7282 37.7103 108.816 30.4507 110.657 28.4057C112.293 26.5652 112.19 26.463 109.634 25.4405C106.362 24.2135 102.579 24.2135 98.1822 25.5427Z" fill="#20401E"/>
<path d="M87.7529 34.6428C87.7529 36.5856 87.9574 37.4036 88.2642 36.3811C88.4687 35.4608 88.4687 33.8249 88.2642 32.8024C87.9574 31.8821 87.7529 32.7001 87.7529 34.6428Z" fill="#20401E"/>
<path d="M67.0986 38.1194C67.0986 38.4261 68.0189 39.1419 69.1436 39.7554C70.2683 40.3689 71.1886 40.5734 71.1886 40.3689C71.1886 40.0621 70.2683 39.3464 69.1436 38.7329C68.0189 38.1194 67.0986 37.9149 67.0986 38.1194Z" fill="#20401E"/>
<path d="M30.21 133C29.7567 131.8 29.33 130.627 28.93 129.48C28.53 128.307 28.1167 127.12 27.69 125.92H15.13L12.61 133H8.57C9.63667 130.067 10.6367 127.36 11.57 124.88C12.5033 122.373 13.41 120 14.29 117.76C15.1967 115.52 16.09 113.387 16.97 111.36C17.85 109.307 18.77 107.28 19.73 105.28H23.29C24.25 107.28 25.17 109.307 26.05 111.36C26.93 113.387 27.81 115.52 28.69 117.76C29.5967 120 30.5167 122.373 31.45 124.88C32.3833 127.36 33.3833 130.067 34.45 133H30.21ZM26.57 122.72C25.7167 120.4 24.8633 118.16 24.01 116C23.1833 113.813 22.3167 111.72 21.41 109.72C20.4767 111.72 19.5833 113.813 18.73 116C17.9033 118.16 17.0767 120.4 16.25 122.72H26.57ZM50.3884 130.92C50.0684 131.133 49.4418 131.413 48.5084 131.76C47.6018 132.08 46.5351 132.24 45.3084 132.24C44.0551 132.24 42.8684 132.04 41.7484 131.64C40.6551 131.24 39.6951 130.627 38.8684 129.8C38.0418 128.947 37.3884 127.893 36.9084 126.64C36.4284 125.387 36.1884 123.893 36.1884 122.16C36.1884 120.64 36.4151 119.253 36.8684 118C37.3218 116.72 37.9751 115.627 38.8284 114.72C39.7084 113.787 40.7751 113.067 42.0284 112.56C43.2818 112.027 44.6951 111.76 46.2684 111.76C48.0018 111.76 49.5084 111.893 50.7884 112.16C52.0951 112.4 53.1884 112.627 54.0684 112.84V131.4C54.0684 134.6 53.2418 136.92 51.5884 138.36C49.9351 139.8 47.4284 140.52 44.0684 140.52C42.7618 140.52 41.5218 140.413 40.3484 140.2C39.2018 139.987 38.2018 139.733 37.3484 139.44L38.0284 136.2C38.7751 136.493 39.6818 136.747 40.7484 136.96C41.8418 137.2 42.9751 137.32 44.1484 137.32C46.3618 137.32 47.9484 136.88 48.9084 136C49.8951 135.12 50.3884 133.72 50.3884 131.8V130.92ZM50.3484 115.48C49.9751 115.373 49.4684 115.28 48.8284 115.2C48.2151 115.093 47.3751 115.04 46.3084 115.04C44.3084 115.04 42.7618 115.693 41.6684 117C40.6018 118.307 40.0684 120.04 40.0684 122.2C40.0684 123.4 40.2151 124.427 40.5084 125.28C40.8284 126.133 41.2418 126.84 41.7484 127.4C42.2818 127.96 42.8818 128.373 43.5484 128.64C44.2418 128.907 44.9484 129.04 45.6684 129.04C46.6551 129.04 47.5618 128.907 48.3884 128.64C49.2151 128.347 49.8684 128.013 50.3484 127.64V115.48ZM68.1534 111.76C68.4734 111.76 68.8334 111.787 69.2334 111.84C69.6601 111.867 70.0734 111.92 70.4734 112C70.8734 112.053 71.2334 112.12 71.5534 112.2C71.9001 112.253 72.1534 112.307 72.3134 112.36L71.6734 115.6C71.3801 115.493 70.8868 115.373 70.1934 115.24C69.5268 115.08 68.6601 115 67.5934 115C66.9001 115 66.2068 115.08 65.5134 115.24C64.8468 115.373 64.4068 115.467 64.1934 115.52V133H60.4734V113.08C61.3534 112.76 62.4468 112.467 63.7534 112.2C65.0601 111.907 66.5268 111.76 68.1534 111.76ZM94.2631 122.6C94.2631 124.253 94.0231 125.747 93.5431 127.08C93.0631 128.413 92.3831 129.56 91.5031 130.52C90.6498 131.48 89.6231 132.227 88.4231 132.76C87.2231 133.267 85.9165 133.52 84.5031 133.52C83.0898 133.52 81.7831 133.267 80.5831 132.76C79.3831 132.227 78.3431 131.48 77.4631 130.52C76.6098 129.56 75.9431 128.413 75.4631 127.08C74.9831 125.747 74.7431 124.253 74.7431 122.6C74.7431 120.973 74.9831 119.493 75.4631 118.16C75.9431 116.8 76.6098 115.64 77.4631 114.68C78.3431 113.72 79.3831 112.987 80.5831 112.48C81.7831 111.947 83.0898 111.68 84.5031 111.68C85.9165 111.68 87.2231 111.947 88.4231 112.48C89.6231 112.987 90.6498 113.72 91.5031 114.68C92.3831 115.64 93.0631 116.8 93.5431 118.16C94.0231 119.493 94.2631 120.973 94.2631 122.6ZM90.3831 122.6C90.3831 120.253 89.8498 118.4 88.7831 117.04C87.7431 115.653 86.3165 114.96 84.5031 114.96C82.6898 114.96 81.2498 115.653 80.1831 117.04C79.1431 118.4 78.6231 120.253 78.6231 122.6C78.6231 124.947 79.1431 126.813 80.1831 128.2C81.2498 129.56 82.6898 130.24 84.5031 130.24C86.3165 130.24 87.7431 129.56 88.7831 128.2C89.8498 126.813 90.3831 124.947 90.3831 122.6ZM122.497 119.12C122.497 121.52 122.124 123.613 121.377 125.4C120.63 127.16 119.577 128.627 118.217 129.8C116.857 130.947 115.23 131.813 113.337 132.4C111.444 132.96 109.364 133.24 107.097 133.24C105.977 133.24 104.737 133.187 103.377 133.08C102.044 133 100.83 132.827 99.7369 132.56V105.68C100.83 105.413 102.044 105.24 103.377 105.16C104.737 105.053 105.977 105 107.097 105C109.364 105 111.444 105.293 113.337 105.88C115.23 106.44 116.857 107.307 118.217 108.48C119.577 109.627 120.63 111.093 121.377 112.88C122.124 114.64 122.497 116.72 122.497 119.12ZM107.417 129.84C111.097 129.84 113.844 128.907 115.657 127.04C117.47 125.147 118.377 122.507 118.377 119.12C118.377 115.733 117.47 113.107 115.657 111.24C113.844 109.347 111.097 108.4 107.417 108.4C106.324 108.4 105.47 108.413 104.857 108.44C104.27 108.467 103.857 108.493 103.617 108.52V129.72C103.857 129.747 104.27 129.773 104.857 129.8C105.47 129.827 106.324 129.84 107.417 129.84ZM131.733 133H128.013V112.2H131.733V133ZM129.853 108.44C129.186 108.44 128.613 108.227 128.133 107.8C127.679 107.347 127.452 106.747 127.452 106C127.452 105.253 127.679 104.667 128.133 104.24C128.613 103.787 129.186 103.56 129.853 103.56C130.519 103.56 131.079 103.787 131.533 104.24C132.013 104.667 132.253 105.253 132.253 106C132.253 106.747 132.013 107.347 131.533 107.8C131.079 108.227 130.519 108.44 129.853 108.44ZM145.85 133.24C145.29 133.24 144.676 133.227 144.01 133.2C143.37 133.173 142.716 133.133 142.05 133.08C141.41 133.027 140.77 132.96 140.13 132.88C139.49 132.8 138.903 132.693 138.37 132.56V105.68C138.903 105.547 139.49 105.44 140.13 105.36C140.77 105.28 141.41 105.213 142.05 105.16C142.716 105.107 143.37 105.067 144.01 105.04C144.65 105.013 145.25 105 145.81 105C147.41 105 148.903 105.12 150.29 105.36C151.703 105.6 152.916 106.013 153.93 106.6C154.97 107.16 155.783 107.907 156.37 108.84C156.956 109.773 157.25 110.92 157.25 112.28C157.25 113.8 156.89 115.053 156.17 116.04C155.45 117 154.49 117.72 153.29 118.2C154.916 118.68 156.21 119.44 157.17 120.48C158.13 121.52 158.61 122.987 158.61 124.88C158.61 127.653 157.583 129.747 155.53 131.16C153.503 132.547 150.276 133.24 145.85 133.24ZM142.21 120.08V129.84C142.503 129.867 142.85 129.893 143.25 129.92C143.596 129.947 143.996 129.973 144.45 130C144.93 130 145.476 130 146.09 130C147.236 130 148.316 129.933 149.33 129.8C150.37 129.64 151.276 129.373 152.05 129C152.823 128.627 153.436 128.107 153.89 127.44C154.37 126.773 154.61 125.933 154.61 124.92C154.61 124.013 154.436 123.253 154.09 122.64C153.743 122 153.236 121.493 152.57 121.12C151.93 120.747 151.156 120.48 150.25 120.32C149.343 120.16 148.33 120.08 147.21 120.08H142.21ZM142.21 116.96H146.29C147.25 116.96 148.156 116.893 149.01 116.76C149.863 116.627 150.596 116.387 151.21 116.04C151.85 115.693 152.343 115.24 152.69 114.68C153.063 114.12 153.25 113.413 153.25 112.56C153.25 111.76 153.063 111.093 152.69 110.56C152.316 110 151.796 109.56 151.13 109.24C150.49 108.893 149.73 108.64 148.85 108.48C147.97 108.32 147.036 108.24 146.05 108.24C145.063 108.24 144.29 108.253 143.73 108.28C143.17 108.307 142.663 108.347 142.21 108.4V116.96ZM167.553 133H163.833V112.2H167.553V133ZM165.673 108.44C165.006 108.44 164.433 108.227 163.953 107.8C163.499 107.347 163.273 106.747 163.273 106C163.273 105.253 163.499 104.667 163.953 104.24C164.433 103.787 165.006 103.56 165.673 103.56C166.339 103.56 166.899 103.787 167.353 104.24C167.833 104.667 168.073 105.253 168.073 106C168.073 106.747 167.833 107.347 167.353 107.8C166.899 108.227 166.339 108.44 165.673 108.44Z" fill="#20401E"/>
</svg>
