<svg width="216" height="97" viewBox="0 0 216 97" fill="none" xmlns="http://www.w3.org/2000/svg">
<path d="M148.437 41C147.983 39.8 147.557 38.6267 147.157 37.48C146.757 36.3067 146.343 35.12 145.917 33.92H133.357L130.837 41H126.797C127.863 38.0667 128.863 35.36 129.797 32.88C130.73 30.3733 131.637 28 132.517 25.76C133.423 23.52 134.317 21.3867 135.197 19.36C136.077 17.3067 136.997 15.28 137.957 13.28H141.517C142.477 15.28 143.397 17.3067 144.277 19.36C145.157 21.3867 146.037 23.52 146.917 25.76C147.823 28 148.743 30.3733 149.677 32.88C150.61 35.36 151.61 38.0667 152.677 41H148.437ZM144.797 30.72C143.943 28.4 143.09 26.16 142.237 24C141.41 21.8133 140.543 19.72 139.637 17.72C138.703 19.72 137.81 21.8133 136.957 24C136.13 26.16 135.303 28.4 134.477 30.72H144.797ZM168.615 38.92C168.295 39.1333 167.668 39.4133 166.735 39.76C165.828 40.08 164.762 40.24 163.535 40.24C162.282 40.24 161.095 40.04 159.975 39.64C158.882 39.24 157.922 38.6267 157.095 37.8C156.268 36.9467 155.615 35.8933 155.135 34.64C154.655 33.3867 154.415 31.8933 154.415 30.16C154.415 28.64 154.642 27.2533 155.095 26C155.548 24.72 156.202 23.6267 157.055 22.72C157.935 21.7867 159.002 21.0667 160.255 20.56C161.508 20.0267 162.922 19.76 164.495 19.76C166.228 19.76 167.735 19.8933 169.015 20.16C170.322 20.4 171.415 20.6267 172.295 20.84V39.4C172.295 42.6 171.468 44.92 169.815 46.36C168.162 47.8 165.655 48.52 162.295 48.52C160.988 48.52 159.748 48.4133 158.575 48.2C157.428 47.9867 156.428 47.7333 155.575 47.44L156.255 44.2C157.002 44.4933 157.908 44.7467 158.975 44.96C160.068 45.2 161.202 45.32 162.375 45.32C164.588 45.32 166.175 44.88 167.135 44C168.122 43.12 168.615 41.72 168.615 39.8V38.92ZM168.575 23.48C168.202 23.3733 167.695 23.28 167.055 23.2C166.442 23.0933 165.602 23.04 164.535 23.04C162.535 23.04 160.988 23.6933 159.895 25C158.828 26.3067 158.295 28.04 158.295 30.2C158.295 31.4 158.442 32.4267 158.735 33.28C159.055 34.1333 159.468 34.84 159.975 35.4C160.508 35.96 161.108 36.3733 161.775 36.64C162.468 36.9067 163.175 37.04 163.895 37.04C164.882 37.04 165.788 36.9067 166.615 36.64C167.442 36.3467 168.095 36.0133 168.575 35.64V23.48ZM186.38 19.76C186.7 19.76 187.06 19.7867 187.46 19.84C187.887 19.8667 188.3 19.92 188.7 20C189.1 20.0533 189.46 20.12 189.78 20.2C190.127 20.2533 190.38 20.3067 190.54 20.36L189.9 23.6C189.607 23.4933 189.113 23.3733 188.42 23.24C187.753 23.08 186.887 23 185.82 23C185.127 23 184.433 23.08 183.74 23.24C183.073 23.3733 182.633 23.4667 182.42 23.52V41H178.7V21.08C179.58 20.76 180.673 20.4667 181.98 20.2C183.287 19.9067 184.753 19.76 186.38 19.76ZM212.49 30.6C212.49 32.2533 212.25 33.7467 211.77 35.08C211.29 36.4133 210.61 37.56 209.73 38.52C208.876 39.48 207.85 40.2267 206.65 40.76C205.45 41.2667 204.143 41.52 202.73 41.52C201.316 41.52 200.01 41.2667 198.81 40.76C197.61 40.2267 196.57 39.48 195.69 38.52C194.836 37.56 194.17 36.4133 193.69 35.08C193.21 33.7467 192.97 32.2533 192.97 30.6C192.97 28.9733 193.21 27.4933 193.69 26.16C194.17 24.8 194.836 23.64 195.69 22.68C196.57 21.72 197.61 20.9867 198.81 20.48C200.01 19.9467 201.316 19.68 202.73 19.68C204.143 19.68 205.45 19.9467 206.65 20.48C207.85 20.9867 208.876 21.72 209.73 22.68C210.61 23.64 211.29 24.8 211.77 26.16C212.25 27.4933 212.49 28.9733 212.49 30.6ZM208.61 30.6C208.61 28.2533 208.076 26.4 207.01 25.04C205.97 23.6533 204.543 22.96 202.73 22.96C200.916 22.96 199.476 23.6533 198.41 25.04C197.37 26.4 196.85 28.2533 196.85 30.6C196.85 32.9467 197.37 34.8133 198.41 36.2C199.476 37.56 200.916 38.24 202.73 38.24C204.543 38.24 205.97 37.56 207.01 36.2C208.076 34.8133 208.61 32.9467 208.61 30.6ZM159.473 73.12C159.473 75.52 159.1 77.6133 158.353 79.4C157.607 81.16 156.553 82.6267 155.193 83.8C153.833 84.9467 152.207 85.8133 150.313 86.4C148.42 86.96 146.34 87.24 144.073 87.24C142.953 87.24 141.713 87.1867 140.353 87.08C139.02 87 137.807 86.8267 136.713 86.56V59.68C137.807 59.4133 139.02 59.24 140.353 59.16C141.713 59.0533 142.953 59 144.073 59C146.34 59 148.42 59.2933 150.313 59.88C152.207 60.44 153.833 61.3067 155.193 62.48C156.553 63.6267 157.607 65.0933 158.353 66.88C159.1 68.64 159.473 70.72 159.473 73.12ZM144.393 83.84C148.073 83.84 150.82 82.9067 152.633 81.04C154.447 79.1467 155.353 76.5067 155.353 73.12C155.353 69.7333 154.447 67.1067 152.633 65.24C150.82 63.3467 148.073 62.4 144.393 62.4C143.3 62.4 142.447 62.4133 141.833 62.44C141.247 62.4667 140.833 62.4933 140.593 62.52V83.72C140.833 83.7467 141.247 83.7733 141.833 83.8C142.447 83.8267 143.3 83.84 144.393 83.84ZM168.709 87H164.989V66.2H168.709V87ZM166.829 62.44C166.162 62.44 165.589 62.2267 165.109 61.8C164.656 61.3467 164.429 60.7467 164.429 60C164.429 59.2533 164.656 58.6667 165.109 58.24C165.589 57.7867 166.162 57.56 166.829 57.56C167.496 57.56 168.056 57.7867 168.509 58.24C168.989 58.6667 169.229 59.2533 169.229 60C169.229 60.7467 168.989 61.3467 168.509 61.8C168.056 62.2267 167.496 62.44 166.829 62.44ZM182.826 87.24C182.266 87.24 181.653 87.2267 180.986 87.2C180.346 87.1733 179.693 87.1333 179.026 87.08C178.386 87.0267 177.746 86.96 177.106 86.88C176.466 86.8 175.88 86.6933 175.346 86.56V59.68C175.88 59.5467 176.466 59.44 177.106 59.36C177.746 59.28 178.386 59.2133 179.026 59.16C179.693 59.1067 180.346 59.0667 180.986 59.04C181.626 59.0133 182.226 59 182.786 59C184.386 59 185.88 59.12 187.266 59.36C188.68 59.6 189.893 60.0133 190.906 60.6C191.946 61.16 192.76 61.9067 193.346 62.84C193.933 63.7733 194.226 64.92 194.226 66.28C194.226 67.8 193.866 69.0533 193.146 70.04C192.426 71 191.466 71.72 190.266 72.2C191.893 72.68 193.186 73.44 194.146 74.48C195.106 75.52 195.586 76.9867 195.586 78.88C195.586 81.6533 194.56 83.7467 192.506 85.16C190.48 86.5467 187.253 87.24 182.826 87.24ZM179.186 74.08V83.84C179.48 83.8667 179.826 83.8933 180.226 83.92C180.573 83.9467 180.973 83.9733 181.426 84C181.906 84 182.453 84 183.066 84C184.213 84 185.293 83.9333 186.306 83.8C187.346 83.64 188.253 83.3733 189.026 83C189.8 82.6267 190.413 82.1067 190.866 81.44C191.346 80.7733 191.586 79.9333 191.586 78.92C191.586 78.0133 191.413 77.2533 191.066 76.64C190.72 76 190.213 75.4933 189.546 75.12C188.906 74.7467 188.133 74.48 187.226 74.32C186.32 74.16 185.306 74.08 184.186 74.08H179.186ZM179.186 70.96H183.266C184.226 70.96 185.133 70.8933 185.986 70.76C186.84 70.6267 187.573 70.3867 188.186 70.04C188.826 69.6933 189.32 69.24 189.666 68.68C190.04 68.12 190.226 67.4133 190.226 66.56C190.226 65.76 190.04 65.0933 189.666 64.56C189.293 64 188.773 63.56 188.106 63.24C187.466 62.8933 186.706 62.64 185.826 62.48C184.946 62.32 184.013 62.24 183.026 62.24C182.04 62.24 181.266 62.2533 180.706 62.28C180.146 62.3067 179.64 62.3467 179.186 62.4V70.96ZM204.529 87H200.809V66.2H204.529V87ZM202.649 62.44C201.983 62.44 201.409 62.2267 200.929 61.8C200.476 61.3467 200.249 60.7467 200.249 60C200.249 59.2533 200.476 58.6667 200.929 58.24C201.409 57.7867 201.983 57.56 202.649 57.56C203.316 57.56 203.876 57.7867 204.329 58.24C204.809 58.6667 205.049 59.2533 205.049 60C205.049 60.7467 204.809 61.3467 204.329 61.8C203.876 62.2267 203.316 62.44 202.649 62.44Z" fill="#20401E"/>
<path d="M53.0478 2.57116C48.5019 6.08383 46.7456 11.2495 47.6754 17.9649C48.0887 21.1676 48.3986 24.6803 48.2953 25.8168C48.2953 27.0565 48.3986 27.2632 48.7086 26.3333C48.9152 25.5068 50.5682 23.9571 52.2212 23.0273C53.8743 22.0975 56.1472 19.4113 57.3869 17.0351C59.1433 13.5224 59.4532 11.7661 58.8333 6.70371C58.1101 -0.115005 57.1803 -0.734888 53.0478 2.57116Z" fill="#20401E"/>
<path d="M26.9097 5.25729C18.3346 6.60037 2.11435 11.2495 0.254705 12.7992C-0.67512 13.729 1.08122 33.0487 3.25081 44.9298C4.18063 49.9922 6.35022 56.8109 8.31319 60.9435C14.3054 73.4444 28.3561 86.8752 43.2333 94.1072L49.1222 97L54.5978 94.3138C62.7596 90.2846 72.2645 82.7427 78.5666 75.0975C84.7654 67.6589 91.5842 54.538 93.4438 46.5828C95.4068 38.6277 97.783 13.6257 96.7498 12.5926C95.3035 11.1462 76.2937 5.77386 70.0949 5.05066C62.3463 4.12083 63.0695 6.18711 71.128 7.63351C81.3561 9.59647 94.5803 13.9357 94.5803 15.2787C94.5803 18.5848 91.3775 43.7934 90.6543 46.3762L89.8278 49.269L83.7323 44.4132L77.5335 39.5575L83.2157 44.8265C86.3151 47.7193 88.4847 50.0955 88.0715 50.0955C87.6582 50.0955 84.7654 48.4425 81.666 46.5828C76.9136 43.4834 75.6738 43.0702 72.8843 43.8967C70.1982 44.6199 69.6816 44.5166 70.1982 43.3801C70.5081 42.347 69.3717 42.7602 66.8921 44.4132L63.0695 46.9961L56.3541 44.3099C52.6348 42.7602 49.2255 41.2105 48.7089 40.6939C47.3658 39.4542 40.7537 39.5575 38.7908 40.7973C37.6543 41.5205 38.1709 41.6238 40.4438 41.2105C42.7167 40.7973 46.3327 41.8304 54.5978 45.3431C60.6933 47.9259 66.6855 50.7154 68.0286 51.4386C69.2684 52.2651 73.5042 54.6413 77.3268 56.8109C82.0793 59.2904 84.1456 60.9435 83.4224 61.6667C82.6992 62.3899 78.6699 60.7368 71.2313 57.0175C61.4165 51.9552 60.3834 51.6452 63.5861 54.4347C70.5081 60.5302 78.05 67.7622 78.05 68.2787C78.05 69.0019 68.0286 62.4932 57.5939 54.9513C52.5315 51.232 46.8493 47.4093 44.8863 46.4795L41.4769 44.6199L26.9097 52.0585C18.9545 56.0877 12.1358 59.3938 11.7225 59.3938C8.20987 59.3938 17.4048 52.885 31.3522 45.4464C34.245 43.7934 36.6212 42.347 36.4146 42.1403C36.2079 42.037 32.6953 43.5867 28.666 45.653C21.0208 49.5789 18.0247 49.6823 22.3639 45.963C24.1202 44.4132 23.0871 44.7232 18.3346 47.0994C14.7186 48.8557 11.5159 50.0955 11.3093 49.7856C10.9993 49.5789 13.8921 46.8928 17.6114 43.8967C27.013 36.3548 25.9799 36.3548 16.165 43.8967C11.7225 47.306 7.79662 50.0955 7.48667 50.0955C7.17673 50.0955 6.66016 48.9591 6.35022 47.616C5.73034 45.0331 2.63092 18.998 2.63092 15.8986C2.63092 13.2125 22.4672 7.84013 38.5841 6.18711C42.0968 5.77386 44.9896 5.05066 44.9896 4.5341C44.9896 3.29433 37.9643 3.50095 26.9097 5.25729ZM81.0461 64.2495C81.1495 66.6257 78.6699 65.6959 73.9175 61.5633L69.2684 57.4308L75.1572 60.2203C78.36 61.77 81.0461 63.6296 81.0461 64.2495ZM54.3912 66.1092C54.2878 67.6589 51.9116 67.3489 51.3951 65.7992C51.0851 64.8694 51.6017 64.4561 52.6348 64.7661C53.668 64.8694 54.3912 65.4893 54.3912 66.1092ZM67.2021 68.692C67.512 69.3119 67.0988 70.0351 66.1689 70.345C64.206 71.1715 63.0695 70.345 64.1027 68.7953C64.9292 67.3489 66.3756 67.3489 67.2021 68.692ZM72.6777 73.961C72.4711 74.5809 71.8512 74.9941 71.3346 74.9941C70.8181 74.9941 70.1982 74.5809 69.9916 73.961C69.7849 73.3411 70.4048 72.8246 71.3346 72.8246C72.2645 72.8246 72.8843 73.3411 72.6777 73.961ZM63.5861 84.2924C63.5861 84.809 62.8629 85.2222 62.0364 85.2222C60.4867 85.2222 59.9701 83.9825 61.1066 82.846C61.9331 82.0195 63.5861 82.9493 63.5861 84.2924Z" fill="#20401E"/>
<path d="M33.9358 18.7914C35.0723 25.4035 42.3042 32.5321 45.0937 29.7427C46.9534 27.883 45.3003 23.5438 40.8578 19.1013C35.4855 13.729 33.1093 13.6257 33.9358 18.7914Z" fill="#20401E"/>
<path d="M56.766 26.4366C55.113 26.9532 52.5302 28.5029 51.2904 29.846C49.1208 32.2222 48.9142 32.7388 50.1539 35.6315C50.8771 37.2846 51.9103 38.731 52.4268 38.731C54.2865 38.731 67.5107 31.3957 69.3703 29.3294C71.0233 27.4697 70.92 27.3664 68.3372 26.3333C65.0311 25.0935 61.2085 25.0935 56.766 26.4366Z" fill="#20401E"/>
<path d="M46.2295 35.6315C46.2295 37.5945 46.4361 38.421 46.7461 37.3879C46.9527 36.4581 46.9527 34.805 46.7461 33.7719C46.4361 32.8421 46.2295 33.6686 46.2295 35.6315Z" fill="#20401E"/>
<path d="M25.3594 39.1442C25.3594 39.4542 26.2892 40.1774 27.4257 40.7973C28.5621 41.4171 29.4919 41.6238 29.4919 41.4171C29.4919 41.1072 28.5621 40.384 27.4257 39.7641C26.2892 39.1442 25.3594 38.9376 25.3594 39.1442Z" fill="#20401E"/>
</svg>
